<?xml version="1.0" encoding="UTF-8"?>
<svg id="a" data-name="图层 1" xmlns="http://www.w3.org/2000/svg" width="100mm" height="100mm" viewBox="0 0 283.46 283.46">
  <path d="M141.73,78.73c1.45,0,2.59,2.02,2.46,4.37-.86,30.44-1.68,43.66-2.46,43.66s-1.6-13.22-2.46-43.66c-.13-2.34,1.01-4.37,2.46-4.37Z" fill="#72ba2b"/>
  <path d="M164.73,83.05c1.35.53,1.69,2.83.72,4.96-11.75,28.07-17.27,40.11-18,39.82-.73-.28,3.26-12.91,13.41-41.61.72-2.23,2.51-3.71,3.86-3.18Z" fill="#72ba2b"/>
  <path d="M184.62,95.42c1.07.98.56,3.25-1.11,4.89-21.05,21.92-30.53,31.13-31.11,30.6-.58-.53,7.69-10.86,27.48-33.93,1.48-1.82,3.67-2.55,4.75-1.56Z" fill="#72ba2b"/>
  <path d="M198.72,114.17c.65,1.31-.65,3.23-2.8,4.16-27.52,12.8-39.67,17.95-40.02,17.25s11.07-7.33,37.83-21.67c2.03-1.16,4.34-1.04,4.99.26Z" fill="#72ba2b"/>
  <path d="M205.12,136.76c.13,1.45-1.77,2.78-4.1,2.86-30.26,1.95-43.45,2.35-43.52,1.57s12.96-2.82,43.07-6.49c2.31-.35,4.42.6,4.56,2.06Z" fill="#72ba2b"/>
  <path d="M202.96,160.15c-.4,1.4-2.65,1.95-4.86,1.18-28.92-9.16-41.36-13.57-41.15-14.32s13.1,2.07,42.49,9.57c2.28.51,3.91,2.17,3.51,3.57Z" fill="#72ba2b"/>
  <path d="M192.53,181.19c-.88,1.16-3.17.86-4.95-.66-23.67-19.03-33.69-27.66-33.22-28.28.47-.63,11.47,6.68,36.18,24.34,1.94,1.31,2.86,3.44,1.99,4.6Z" fill="#72ba2b"/>
  <path d="M175.25,197.01c-1.23.77-3.26-.35-4.38-2.41-15.23-26.33-21.46-38.01-20.8-38.42.66-.41,8.29,10.4,24.98,35.82,1.34,1.92,1.43,4.24.2,5.01Z" fill="#72ba2b"/>
  <path d="M153.43,205.5c-1.43.27-2.92-1.51-3.22-3.84-4.73-30.08-6.34-43.23-5.57-43.37.77-.14,3.99,12.7,10.41,42.47.56,2.28-.19,4.48-1.62,4.75Z" fill="#72ba2b"/>
  <path d="M130.03,205.5c-1.43-.27-2.18-2.47-1.62-4.75,6.41-29.76,9.64-42.61,10.41-42.47.77.14-.84,13.29-5.57,43.37-.3,2.33-1.79,4.11-3.22,3.84Z" fill="#72ba2b"/>
  <path d="M108.22,197.01c-1.23-.77-1.14-3.09.2-5.01,16.69-25.43,24.32-36.24,24.98-35.82s-5.57,12.09-20.8,38.42c-1.12,2.06-3.14,3.18-4.38,2.41Z" fill="#72ba2b"/>
  <path d="M90.93,181.18c-.88-1.16.05-3.3,1.99-4.6,24.71-17.66,35.71-24.97,36.18-24.34s-9.54,9.25-33.22,28.28c-1.78,1.52-4.08,1.83-4.95.66Z" fill="#72ba2b"/>
  <path d="M80.5,160.16c-.4-1.4,1.23-3.06,3.51-3.57,29.39-7.5,42.28-10.33,42.49-9.57.21.75-12.23,5.17-41.15,14.32-2.21.77-4.46.22-4.86-1.18Z" fill="#72ba2b"/>
  <path d="M78.34,136.76c.13-1.45,2.24-2.4,4.56-2.06,30.1,3.67,43.14,5.71,43.07,6.49-.07.78-13.26.38-43.52-1.57-2.34-.08-4.24-1.41-4.1-2.86Z" fill="#72ba2b"/>
  <path d="M84.75,114.16c.65-1.31,2.96-1.43,4.99-.26,26.75,14.34,38.17,20.97,37.83,21.67-.35.7-12.5-4.45-40.02-17.25-2.15-.93-3.44-2.85-2.8-4.16Z" fill="#72ba2b"/>
  <path d="M98.84,95.41c1.07-.98,3.27-.26,4.75,1.56,19.79,23.07,28.05,33.4,27.48,33.93-.58.53-10.06-8.69-31.11-30.6-1.67-1.64-2.19-3.91-1.11-4.89Z" fill="#72ba2b"/>
  <path d="M118.74,83.05c1.35-.53,3.14.95,3.86,3.18,10.15,28.69,14.14,41.32,13.41,41.61-.73.28-6.25-11.75-18-39.82-.97-2.14-.63-4.44.72-4.96Z" fill="#72ba2b"/>
</svg>