<?xml version="1.0" encoding="UTF-8"?>
<svg id="a" data-name="图层 1" xmlns="http://www.w3.org/2000/svg" width="100mm" height="100mm" viewBox="0 0 283.46 283.46">
  <path d="M147.66,31.18c2.26,0,4.03,3.15,3.82,6.79-1.33,47.35-2.61,67.91-3.82,67.91s-2.49-20.57-3.83-67.91c-.21-3.65,1.57-6.79,3.83-6.79Z" fill="#d4db7e"/>
  <path d="M187.77,38.71c2.11.82,2.63,4.39,1.12,7.72-18.27,43.66-26.86,62.38-28,61.94-1.13-.44,5.08-20.08,20.86-64.71,1.12-3.48,3.9-5.77,6.01-4.95Z" fill="#d4db7e"/>
  <path d="M222.45,60.28c1.67,1.53.87,5.05-1.73,7.61-32.75,34.09-47.49,48.42-48.39,47.6-.9-.82,11.96-16.89,42.73-52.78,2.3-2.83,5.71-3.96,7.38-2.43Z" fill="#d4db7e"/>
  <path d="M247.04,92.97c1.01,2.03-1.01,5.02-4.35,6.47-42.8,19.91-61.7,27.93-62.24,26.83-.54-1.09,17.22-11.41,58.83-33.71,3.16-1.81,6.75-1.62,7.76.41Z" fill="#d4db7e"/>
  <path d="M258.2,132.37c.21,2.26-2.75,4.32-6.38,4.45-47.07,3.04-67.58,3.66-67.69,2.44-.11-1.22,20.16-4.39,66.99-10.09,3.6-.54,6.88.94,7.09,3.2Z" fill="#d4db7e"/>
  <path d="M254.44,173.17c-.62,2.18-4.12,3.03-7.55,1.84-44.98-14.24-64.33-21.11-64-22.28.33-1.17,20.38,3.22,66.09,14.89,3.55.8,6.08,3.37,5.46,5.55Z" fill="#d4db7e"/>
  <path d="M236.25,209.84c-1.36,1.81-4.93,1.33-7.7-1.03-36.82-29.6-52.4-43.02-51.66-43.99.73-.97,17.85,10.4,56.27,37.86,3.02,2.03,4.45,5.35,3.09,7.16Z" fill="#d4db7e"/>
  <path d="M206.11,237.44c-1.92,1.19-5.08-.54-6.81-3.75-23.69-40.96-33.38-59.12-32.35-59.76s12.9,16.17,38.85,55.72c2.09,2.99,2.23,6.6.31,7.8Z" fill="#d4db7e"/>
  <path d="M168.06,252.24c-2.22.42-4.54-2.35-5-5.97-7.35-46.79-9.86-67.24-8.67-67.46,1.19-.22,6.21,19.76,16.19,66.05.87,3.55-.3,6.97-2.52,7.38Z" fill="#d4db7e"/>
  <path d="M127.26,252.24c-2.22-.42-3.39-3.84-2.52-7.38,9.97-46.29,14.99-66.28,16.19-66.05,1.19.22-1.31,20.68-8.67,67.46-.47,3.62-2.78,6.39-5,5.97Z" fill="#d4db7e"/>
  <path d="M89.22,237.44c-1.92-1.19-1.78-4.8.31-7.8,25.95-39.55,37.82-56.36,38.85-55.72s-8.66,18.8-32.35,59.76c-1.74,3.21-4.89,4.95-6.81,3.75Z" fill="#d4db7e"/>
  <path d="M59.07,209.84c-1.36-1.81.07-5.13,3.09-7.16,38.43-27.46,55.54-38.84,56.27-37.86.73.97-14.84,14.39-51.66,43.99-2.77,2.36-6.34,2.84-7.7,1.03Z" fill="#d4db7e"/>
  <path d="M40.89,173.17c-.62-2.18,1.91-4.75,5.46-5.55,45.71-11.67,65.76-16.06,66.09-14.89s-19.02,8.04-64,22.28c-3.44,1.2-6.93.35-7.55-1.84Z" fill="#d4db7e"/>
  <path d="M37.12,132.37c.21-2.26,3.49-3.74,7.09-3.2,46.82,5.7,67.1,8.88,66.99,10.09-.11,1.22-20.62.59-67.69-2.44-3.64-.13-6.59-2.19-6.38-4.45Z" fill="#d4db7e"/>
  <path d="M48.29,92.97c1.01-2.03,4.6-2.22,7.76-.41,41.61,22.3,59.38,32.62,58.83,33.71-.54,1.09-19.45-6.93-62.24-26.83-3.34-1.44-5.36-4.44-4.35-6.47Z" fill="#d4db7e"/>
  <path d="M72.87,60.27c1.67-1.53,5.09-.4,7.38,2.43,30.78,35.89,43.63,51.95,42.74,52.78-.9.82-15.64-13.51-48.39-47.6-2.6-2.56-3.4-6.08-1.73-7.61Z" fill="#d4db7e"/>
  <path d="M107.56,38.71c2.11-.82,4.89,1.47,6.01,4.95,15.79,44.63,22,64.27,20.86,64.71-1.13.44-9.72-18.27-28-61.94-1.5-3.33-.98-6.9,1.12-7.72Z" fill="#d4db7e"/>
</svg>