<?xml version="1.0" encoding="UTF-8"?>
<svg id="a" data-name="图层 1" xmlns="http://www.w3.org/2000/svg" width="100mm" height="100mm" viewBox="0 0 283.46 283.46">
  <ellipse cx="141.73" cy="114.73" rx="3.51" ry="17.79" fill="#99c834"/>
  <ellipse cx="151.62" cy="116.58" rx="17.79" ry="3.51" transform="translate(-11.86 215.85) rotate(-68.82)" fill="#99c834"/>
  <ellipse cx="160.18" cy="121.88" rx="17.79" ry="3.51" transform="translate(-37.8 158.14) rotate(-47.65)" fill="#99c834"/>
  <ellipse cx="166.24" cy="129.91" rx="17.79" ry="3.51" transform="translate(-40.48 87.72) rotate(-26.47)" fill="#99c834"/>
  <ellipse cx="168.99" cy="139.58" rx="17.79" ry="3.51" transform="translate(-12.16 16.19) rotate(-5.29)" fill="#99c834"/>
  <ellipse cx="168.07" cy="149.6" rx="3.51" ry="17.79" transform="translate(-21.82 270.31) rotate(-74.12)" fill="#99c834"/>
  <ellipse cx="163.58" cy="158.61" rx="3.51" ry="17.79" transform="translate(-61.57 193.57) rotate(-52.94)" fill="#99c834"/>
  <ellipse cx="156.15" cy="165.39" rx="3.51" ry="17.79" transform="translate(-63.68 106.97) rotate(-31.76)" fill="#99c834"/>
  <ellipse cx="146.76" cy="169.02" rx="3.51" ry="17.79" transform="translate(-28.56 29.85) rotate(-10.59)" fill="#99c834"/>
  <ellipse cx="136.7" cy="169.02" rx="17.79" ry="3.51" transform="translate(-54.56 272.34) rotate(-79.41)" fill="#99c834"/>
  <ellipse cx="127.32" cy="165.39" rx="17.79" ry="3.51" transform="translate(-80.32 186.57) rotate(-58.24)" fill="#99c834"/>
  <ellipse cx="119.88" cy="158.61" rx="17.79" ry="3.51" transform="translate(-71.37 104.28) rotate(-37.06)" fill="#99c834"/>
  <ellipse cx="115.4" cy="149.6" rx="17.79" ry="3.51" transform="translate(-36.54 37.29) rotate(-15.88)" fill="#99c834"/>
  <ellipse cx="114.47" cy="139.58" rx="3.51" ry="17.79" transform="translate(-35.08 240.69) rotate(-84.71)" fill="#99c834"/>
  <ellipse cx="117.22" cy="129.91" rx="3.51" ry="17.79" transform="translate(-51.32 176.94) rotate(-63.53)" fill="#99c834"/>
  <ellipse cx="123.29" cy="121.88" rx="3.51" ry="17.79" transform="translate(-49.93 114.87) rotate(-42.35)" fill="#99c834"/>
  <ellipse cx="131.84" cy="116.58" rx="3.51" ry="17.79" transform="translate(-33.21 55.5) rotate(-21.18)" fill="#99c834"/>
</svg>