<?xml version="1.0" encoding="UTF-8"?>
<svg id="a" data-name="图层 1" xmlns="http://www.w3.org/2000/svg" width="100mm" height="100mm" viewBox="0 0 283.46 283.46">
  <g id="b" data-name="&amp;lt;径向重复&amp;gt;">
    <path d="M141.73,251.36c-2.4,0-4.29-3.33-4.07-7.2,1.42-50.16,2.78-71.94,4.07-71.94s2.65,21.79,4.07,71.94c.22,3.86-1.67,7.2-4.07,7.2Z" fill="#d4db7e"/>
  </g>
  <g id="c" data-name="&amp;lt;径向重复&amp;gt;">
    <path d="M101.8,243.9c-2.24-.87-2.79-4.66-1.19-8.18,19.44-46.26,28.58-66.08,29.78-65.62,1.21.47-5.4,21.27-22.19,68.56-1.19,3.68-4.15,6.11-6.39,5.24Z" fill="#d4db7e"/>
  </g>
  <g id="d" data-name="&amp;lt;径向重复&amp;gt;">
    <path d="M67.25,222.51c-1.78-1.62-.92-5.35,1.84-8.06,34.84-36.11,50.52-51.3,51.48-50.43s-12.72,17.89-45.46,55.91c-2.44,3-6.08,4.2-7.85,2.58Z" fill="#d4db7e"/>
  </g>
  <g id="e" data-name="&amp;lt;径向重复&amp;gt;">
    <path d="M42.77,190.09c-1.07-2.15,1.07-5.32,4.63-6.85,45.53-21.09,65.64-29.58,66.22-28.43s-18.32,12.08-62.59,35.71c-3.36,1.92-7.18,1.72-8.25-.44Z" fill="#d4db7e"/>
  </g>
  <g id="f" data-name="&amp;lt;径向重复&amp;gt;">
    <path d="M31.65,151.01c-.22-2.39,2.92-4.58,6.79-4.72,50.07-3.22,71.89-3.87,72.01-2.59s-21.45,4.65-71.26,10.69c-3.83.57-7.32-.99-7.54-3.39Z" fill="#d4db7e"/>
  </g>
  <g id="g" data-name="&amp;lt;径向重复&amp;gt;">
    <path d="M35.4,110.56c.66-2.31,4.38-3.21,8.03-1.94,47.85,15.09,68.44,22.36,68.08,23.6-.35,1.24-21.68-3.41-70.31-15.77-3.78-.85-6.46-3.57-5.81-5.88Z" fill="#d4db7e"/>
  </g>
  <g id="h" data-name="&amp;lt;径向重复&amp;gt;">
    <path d="M53.51,74.19c1.45-1.92,5.24-1.41,8.19,1.09,39.17,31.36,55.74,45.57,54.96,46.6s-18.99-11.01-59.87-40.11c-3.21-2.15-4.74-5.67-3.29-7.58Z" fill="#d4db7e"/>
  </g>
  <g id="i" data-name="&amp;lt;径向重复&amp;gt;">
    <path d="M83.53,46.82c2.04-1.27,5.4.58,7.25,3.98,25.2,43.39,35.51,62.63,34.41,63.31s-13.72-17.13-41.33-59.03c-2.22-3.17-2.37-6.99-.33-8.26Z" fill="#d4db7e"/>
  </g>
  <g id="j" data-name="&amp;lt;径向重复&amp;gt;">
    <path d="M121.42,32.14c2.36-.44,4.83,2.49,5.32,6.33,7.82,49.56,10.49,71.23,9.22,71.47s-6.61-20.93-17.22-69.97c-.92-3.76.32-7.38,2.68-7.82Z" fill="#d4db7e"/>
  </g>
  <g id="k" data-name="&amp;lt;径向重复&amp;gt;">
    <path d="M162.05,32.14c2.36.44,3.6,4.06,2.68,7.82-10.61,49.04-15.95,70.21-17.22,69.97s1.4-21.9,9.22-71.47c.5-3.84,2.96-6.77,5.32-6.33Z" fill="#d4db7e"/>
  </g>
  <g id="l" data-name="&amp;lt;径向重复&amp;gt;">
    <path d="M199.93,46.82c2.04,1.27,1.89,5.09-.33,8.26-27.61,41.9-40.23,59.71-41.33,59.03s9.22-19.92,34.41-63.31c1.85-3.4,5.2-5.24,7.25-3.98Z" fill="#d4db7e"/>
  </g>
  <g id="m" data-name="&amp;lt;径向重复&amp;gt;">
    <path d="M229.95,74.19c1.45,1.92-.08,5.43-3.29,7.58-40.88,29.09-59.09,41.14-59.86,40.11s15.79-15.25,54.96-46.6c2.95-2.5,6.75-3.01,8.19-1.09Z" fill="#d4db7e"/>
  </g>
  <g id="n" data-name="&amp;lt;径向重复&amp;gt;">
    <path d="M248.06,110.56c.66,2.31-2.03,5.04-5.81,5.88-48.63,12.36-69.96,17.02-70.31,15.77-.35-1.24,20.23-8.51,68.08-23.6,3.66-1.27,7.38-.37,8.03,1.94Z" fill="#d4db7e"/>
  </g>
  <g id="o" data-name="&amp;lt;径向重复&amp;gt;">
    <path d="M251.81,151.01c-.22,2.39-3.71,3.96-7.54,3.39-49.81-6.04-71.38-9.4-71.26-10.69s21.94-.63,72.01,2.59c3.87.14,7.01,2.32,6.79,4.72Z" fill="#d4db7e"/>
  </g>
  <g id="p" data-name="&amp;lt;径向重复&amp;gt;">
    <path d="M240.69,190.09c-1.07,2.15-4.89,2.35-8.25.44-44.27-23.63-63.16-34.55-62.59-35.71s20.69,7.34,66.22,28.43c3.56,1.53,5.7,4.7,4.63,6.85Z" fill="#d4db7e"/>
  </g>
  <g id="q" data-name="&amp;lt;径向重复&amp;gt;">
    <path d="M216.21,222.51c-1.78,1.62-5.41.43-7.85-2.58-32.74-38.02-46.42-55.04-45.46-55.91s16.64,14.32,51.48,50.43c2.76,2.71,3.62,6.44,1.84,8.06Z" fill="#d4db7e"/>
  </g>
  <g id="r" data-name="&amp;lt;径向重复&amp;gt;">
    <path d="M181.67,243.9c-2.24.87-5.2-1.56-6.39-5.24-16.8-47.28-23.4-68.09-22.2-68.56s10.34,19.36,29.78,65.62c1.6,3.52,1.05,7.31-1.2,8.18Z" fill="#d4db7e"/>
  </g>
</svg>