<?xml version="1.0" encoding="UTF-8"?>
<svg id="a" data-name="图层 1" xmlns="http://www.w3.org/2000/svg" width="100mm" height="100mm" viewBox="0 0 283.46 283.46">
  <path d="M141.73,57.22c1.13,0,2.02,1.57,1.92,3.4-.67,23.68-1.31,33.97-1.92,33.97s-1.25-10.29-1.92-33.97c-.1-1.82.79-3.4,1.92-3.4Z" fill="#72ba2b"/>
  <path d="M172.52,62.97c1.06.41,1.32,2.2.56,3.86-9.18,21.84-13.49,31.2-14.06,30.98s2.55-10.05,10.48-32.37c.56-1.74,1.96-2.88,3.02-2.47Z" fill="#72ba2b"/>
  <path d="M199.15,79.46c.84.76.44,2.53-.87,3.81-16.45,17.05-23.85,24.22-24.31,23.81s6.01-8.45,21.47-26.4c1.15-1.42,2.87-1.98,3.71-1.22Z" fill="#72ba2b"/>
  <path d="M218.03,104.46c.51,1.02-.51,2.51-2.18,3.23-21.5,9.96-30.99,13.97-31.27,13.42s8.65-5.71,29.55-16.86c1.59-.91,3.39-.81,3.9.21Z" fill="#72ba2b"/>
  <path d="M226.6,134.58c.1,1.13-1.38,2.16-3.21,2.23-23.64,1.52-33.95,1.83-34,1.22s10.13-2.2,33.65-5.05c1.81-.27,3.46.47,3.56,1.6Z" fill="#72ba2b"/>
  <path d="M223.71,165.77c-.31,1.09-2.07,1.52-3.79.92-22.6-7.12-32.31-10.56-32.15-11.14s10.24,1.61,33.2,7.45c1.78.4,3.05,1.69,2.74,2.78Z" fill="#72ba2b"/>
  <path d="M209.75,193.81c-.68.91-2.48.67-3.87-.51-18.5-14.81-26.32-21.52-25.95-22s8.96,5.2,28.27,18.94c1.52,1.02,2.24,2.67,1.55,3.58Z" fill="#72ba2b"/>
  <path d="M186.6,214.91c-.96.6-2.55-.27-3.42-1.88-11.9-20.49-16.77-29.57-16.25-29.89s6.48,8.09,19.52,27.87c1.05,1.5,1.12,3.3.16,3.9Z" fill="#72ba2b"/>
  <path d="M157.39,226.23c-1.12.21-2.28-1.17-2.51-2.99-3.69-23.4-4.95-33.63-4.35-33.74s3.12,9.88,8.13,33.04c.44,1.77-.15,3.48-1.26,3.69Z" fill="#72ba2b"/>
  <path d="M126.07,226.23c-1.12-.21-1.7-1.92-1.26-3.69,5.01-23.16,7.53-33.15,8.13-33.04s-.66,10.34-4.35,33.74c-.23,1.81-1.4,3.2-2.51,2.99Z" fill="#72ba2b"/>
  <path d="M96.86,214.91c-.96-.6-.89-2.4.16-3.9,13.04-19.78,19-28.19,19.52-27.87s-4.35,9.41-16.25,29.89c-.87,1.61-2.46,2.47-3.42,1.88Z" fill="#72ba2b"/>
  <path d="M73.72,193.81c-.68-.91.04-2.56,1.55-3.58,19.3-13.74,27.9-19.43,28.27-18.94s-7.46,7.2-25.95,22c-1.39,1.18-3.19,1.42-3.87.51Z" fill="#72ba2b"/>
  <path d="M59.76,165.77c-.31-1.09.96-2.38,2.74-2.78,22.96-5.84,33.03-8.04,33.2-7.45s-9.55,4.02-32.15,11.14c-1.73.6-3.48.17-3.79-.92Z" fill="#72ba2b"/>
  <path d="M56.87,134.58c.1-1.13,1.75-1.87,3.56-1.6,23.52,2.85,33.7,4.44,33.65,5.05s-10.36.3-34-1.22c-1.83-.07-3.31-1.1-3.21-2.23Z" fill="#72ba2b"/>
  <path d="M65.44,104.46c.51-1.02,2.31-1.11,3.9-.21,20.9,11.16,29.82,16.32,29.55,16.86s-9.77-3.47-31.27-13.42c-1.68-.72-2.69-2.22-2.18-3.23Z" fill="#72ba2b"/>
  <path d="M84.31,79.46c.84-.76,2.56-.2,3.71,1.22,15.46,17.95,21.92,25.99,21.47,26.4s-7.86-6.76-24.31-23.81c-1.31-1.28-1.71-3.04-.87-3.81Z" fill="#72ba2b"/>
  <path d="M110.94,62.97c1.06-.41,2.46.74,3.02,2.47,7.93,22.32,11.05,32.15,10.48,32.37s-4.88-9.14-14.06-30.98c-.76-1.66-.49-3.45.56-3.86Z" fill="#72ba2b"/>
</svg>