<?xml version="1.0" encoding="UTF-8"?>
<svg id="a" data-name="图层 1" xmlns="http://www.w3.org/2000/svg" width="100mm" height="100mm" viewBox="0 0 283.46 283.46">
  <path d="M141.73,84.47c1.45,0,2.58,2.01,2.45,4.33-.85,30.19-1.67,43.3-2.45,43.3s-1.6-13.11-2.45-43.3c-.13-2.33,1-4.33,2.45-4.33Z" fill="#72ba2b"/>
  <path d="M162.59,88.37c1.35.52,1.68,2.8.72,4.92-11.7,27.84-17.2,39.77-17.92,39.49s3.25-12.8,13.36-41.26c.72-2.22,2.5-3.68,3.85-3.15Z" fill="#72ba2b"/>
  <path d="M180.63,99.54c1.07.97.56,3.22-1.11,4.85-20.97,21.73-30.41,30.87-30.98,30.35s7.66-10.77,27.36-33.65c1.47-1.81,3.66-2.53,4.73-1.55Z" fill="#72ba2b"/>
  <path d="M193.42,116.47c.64,1.29-.65,3.2-2.78,4.12-27.4,12.69-39.5,17.8-39.85,17.11s11.03-7.27,37.67-21.49c2.02-1.15,4.32-1.03,4.97.26Z" fill="#72ba2b"/>
  <path d="M199.23,136.88c.13,1.44-1.76,2.75-4.09,2.84-30.14,1.94-43.27,2.33-43.34,1.56s12.91-2.8,42.89-6.43c2.3-.35,4.4.6,4.54,2.04Z" fill="#72ba2b"/>
  <path d="M197.27,158.01c-.4,1.39-2.63,1.93-4.84,1.17-28.8-9.08-41.19-13.46-40.98-14.2s13.05,2.05,42.32,9.49c2.27.51,3.89,2.15,3.5,3.54Z" fill="#72ba2b"/>
  <path d="M187.81,177.01c-.87,1.15-3.16.85-4.93-.66-23.57-18.87-33.55-27.43-33.08-28.05s11.43,6.63,36.03,24.14c1.93,1.3,2.85,3.41,1.98,4.56Z" fill="#72ba2b"/>
  <path d="M172.13,191.3c-1.23.76-3.25-.35-4.36-2.39-15.17-26.11-21.37-37.69-20.71-38.1s8.26,10.31,24.88,35.52c1.34,1.91,1.43,4.21.2,4.97Z" fill="#72ba2b"/>
  <path d="M152.34,198.97c-1.42.27-2.9-1.5-3.2-3.81-4.71-29.83-6.31-42.87-5.55-43.01s3.98,12.6,10.36,42.11c.56,2.26-.19,4.44-1.61,4.71Z" fill="#72ba2b"/>
  <path d="M131.12,198.97c-1.42-.27-2.17-2.45-1.61-4.71,6.39-29.51,9.6-42.25,10.36-42.11s-.84,13.18-5.55,43.01c-.3,2.31-1.78,4.07-3.2,3.81Z" fill="#72ba2b"/>
  <path d="M111.33,191.3c-1.23-.76-1.14-3.06.2-4.97,16.62-25.22,24.21-35.93,24.88-35.52s-5.55,11.99-20.71,38.1c-1.11,2.05-3.13,3.15-4.36,2.39Z" fill="#72ba2b"/>
  <path d="M95.65,177.01c-.87-1.15.05-3.27,1.98-4.56,24.6-17.51,35.56-24.76,36.03-24.14s-9.5,9.18-33.08,28.05c-1.78,1.51-4.06,1.81-4.93.66Z" fill="#72ba2b"/>
  <path d="M86.19,158.01c-.4-1.39,1.22-3.03,3.5-3.54,29.27-7.44,42.1-10.24,42.32-9.49s-12.18,5.12-40.98,14.2c-2.2.76-4.44.22-4.84-1.17Z" fill="#72ba2b"/>
  <path d="M84.24,136.88c.13-1.44,2.23-2.38,4.54-2.04,29.98,3.63,42.96,5.66,42.89,6.43s-13.2.38-43.34-1.56c-2.33-.08-4.22-1.4-4.09-2.84Z" fill="#72ba2b"/>
  <path d="M90.04,116.47c.64-1.29,2.95-1.42,4.97-.26,26.64,14.22,38.01,20.8,37.67,21.49s-12.45-4.42-39.85-17.11c-2.14-.92-3.43-2.83-2.78-4.12Z" fill="#72ba2b"/>
  <path d="M102.83,99.54c1.07-.97,3.26-.26,4.73,1.55,19.71,22.88,27.94,33.12,27.36,33.65s-10.01-8.62-30.98-30.35c-1.66-1.63-2.18-3.88-1.11-4.85Z" fill="#72ba2b"/>
  <path d="M120.87,88.37c1.35-.52,3.13.94,3.85,3.15,10.11,28.46,14.08,40.98,13.36,41.26s-6.22-11.65-17.92-39.49c-.96-2.12-.63-4.4.72-4.92Z" fill="#72ba2b"/>
</svg>