<?xml version="1.0" encoding="UTF-8"?>
<svg id="a" data-name="图层 1" xmlns="http://www.w3.org/2000/svg" width="100mm" height="100mm" viewBox="0 0 283.46 283.46">
  <path d="M141.73,251.36c-2.25,0-4.01-3.12-3.81-6.74,1.33-46.95,2.6-67.35,3.81-67.35s2.48,20.4,3.81,67.35c.2,3.62-1.56,6.74-3.81,6.74Z" fill="#d4db7e"/>
  <path d="M101.8,243.9c-2.1-.81-2.62-4.36-1.12-7.66,18.2-43.3,26.75-61.86,27.88-61.42s-5.05,19.92-20.78,64.18c-1.12,3.45-3.89,5.72-5.99,4.9Z" fill="#d4db7e"/>
  <path d="M67.25,222.51c-1.66-1.52-.86-5.01,1.72-7.54,32.61-33.8,47.29-48.02,48.19-47.2s-11.91,16.74-42.56,52.34c-2.29,2.81-5.69,3.93-7.35,2.41Z" fill="#d4db7e"/>
  <path d="M42.77,190.09c-1-2.01,1-4.98,4.33-6.41,42.62-19.74,61.45-27.69,61.98-26.61.54,1.08-17.15,11.31-58.59,33.43-3.15,1.8-6.72,1.61-7.73-.41Z" fill="#d4db7e"/>
  <path d="M31.65,151.01c-.21-2.24,2.74-4.28,6.36-4.41,46.87-3.01,67.3-3.63,67.41-2.42s-20.08,4.35-66.71,10.01c-3.58.54-6.85-.93-7.06-3.17Z" fill="#d4db7e"/>
  <path d="M35.4,110.56c.62-2.16,4.1-3.01,7.52-1.82,44.8,14.13,64.07,20.93,63.73,22.09s-20.3-3.19-65.82-14.77c-3.53-.79-6.05-3.34-5.44-5.51Z" fill="#d4db7e"/>
  <path d="M53.51,74.19c1.36-1.8,4.91-1.32,7.67,1.02,36.67,29.35,52.18,42.66,51.45,43.63s-17.77-10.31-56.04-37.55c-3.01-2.02-4.44-5.3-3.08-7.1Z" fill="#d4db7e"/>
  <path d="M83.53,46.82c1.91-1.18,5.05.54,6.78,3.72,23.59,40.62,33.24,58.63,32.22,59.27s-12.85-16.03-38.69-55.25c-2.08-2.97-2.22-6.55-.31-7.73Z" fill="#d4db7e"/>
  <path d="M121.42,32.14c2.21-.41,4.52,2.33,4.98,5.92,7.32,46.4,9.82,66.68,8.63,66.9s-6.19-19.59-16.12-65.5c-.87-3.52.3-6.91,2.51-7.32Z" fill="#d4db7e"/>
  <path d="M162.05,32.14c2.21.41,3.37,3.8,2.51,7.32-9.93,45.91-14.93,65.72-16.12,65.5s1.31-20.5,8.63-66.9c.46-3.59,2.77-6.33,4.98-5.92Z" fill="#d4db7e"/>
  <path d="M199.93,46.82c1.91,1.18,1.77,4.76-.31,7.73-25.85,39.22-37.66,55.89-38.69,55.25s8.63-18.65,32.22-59.27c1.73-3.18,4.87-4.91,6.78-3.72Z" fill="#d4db7e"/>
  <path d="M229.95,74.19c1.36,1.8-.07,5.08-3.08,7.1-38.27,27.24-55.31,38.51-56.04,37.55s14.78-14.27,51.45-43.63c2.76-2.34,6.31-2.81,7.67-1.02Z" fill="#d4db7e"/>
  <path d="M248.06,110.56c.62,2.16-1.9,4.71-5.44,5.51-45.52,11.57-65.49,15.93-65.82,14.77s18.94-7.97,63.73-22.09c3.42-1.19,6.91-.34,7.52,1.82Z" fill="#d4db7e"/>
  <path d="M251.81,151.01c-.21,2.24-3.48,3.71-7.06,3.17-46.63-5.65-66.82-8.8-66.71-10.01s20.54-.59,67.41,2.42c3.62.13,6.56,2.17,6.36,4.41Z" fill="#d4db7e"/>
  <path d="M240.69,190.09c-1,2.01-4.58,2.2-7.73.41-41.44-22.12-59.13-32.35-58.59-33.43.54-1.08,19.36,6.87,61.98,26.61,3.33,1.43,5.33,4.4,4.33,6.41Z" fill="#d4db7e"/>
  <path d="M216.21,222.51c-1.66,1.52-5.07.4-7.35-2.41-30.65-35.59-43.45-51.52-42.56-52.34s15.57,13.4,48.19,47.2c2.59,2.54,3.39,6.03,1.72,7.54Z" fill="#d4db7e"/>
  <path d="M181.67,243.9c-2.1.81-4.87-1.46-5.98-4.9-15.72-44.26-21.91-63.74-20.78-64.18s9.68,18.12,27.88,61.42c1.5,3.3.98,6.84-1.12,7.66Z" fill="#d4db7e"/>
</svg>