<?xml version="1.0" encoding="UTF-8"?>
<svg id="a" data-name="图层 1" xmlns="http://www.w3.org/2000/svg" width="100mm" height="100mm" viewBox="0 0 283.46 283.46">
  <ellipse cx="141.73" cy="57.82" rx="4.47" ry="22.67" fill="#99c834"/>
  <ellipse cx="172.37" cy="63.55" rx="22.67" ry="4.47" transform="translate(50.85 201.32) rotate(-68.82)" fill="#99c834"/>
  <ellipse cx="198.87" cy="79.96" rx="22.67" ry="4.47" transform="translate(5.8 173.06) rotate(-47.65)" fill="#99c834"/>
  <ellipse cx="217.66" cy="104.83" rx="22.67" ry="4.47" transform="translate(-23.91 108.01) rotate(-26.47)" fill="#99c834"/>
  <ellipse cx="226.19" cy="134.81" rx="22.67" ry="4.47" transform="translate(-11.47 21.45) rotate(-5.29)" fill="#99c834"/>
  <ellipse cx="223.31" cy="165.85" rx="4.47" ry="22.67" transform="translate(2.68 335.25) rotate(-74.12)" fill="#99c834"/>
  <ellipse cx="209.42" cy="193.75" rx="4.47" ry="22.67" transform="translate(-71.4 244.11) rotate(-52.94)" fill="#99c834"/>
  <ellipse cx="186.38" cy="214.75" rx="4.47" ry="22.67" transform="translate(-85.14 130.28) rotate(-31.76)" fill="#99c834"/>
  <ellipse cx="157.32" cy="226.01" rx="4.47" ry="22.67" transform="translate(-38.85 32.76) rotate(-10.59)" fill="#99c834"/>
  <ellipse cx="126.15" cy="226.01" rx="22.67" ry="4.47" transform="translate(-119.2 308.48) rotate(-79.41)" fill="#99c834"/>
  <ellipse cx="97.08" cy="214.75" rx="22.67" ry="4.47" transform="translate(-136.61 184.24) rotate(-58.24)" fill="#99c834"/>
  <ellipse cx="74.05" cy="193.75" rx="22.67" ry="4.47" transform="translate(-101.81 83.76) rotate(-37.06)" fill="#99c834"/>
  <ellipse cx="60.15" cy="165.85" rx="22.67" ry="4.47" transform="translate(-43.09 22.79) rotate(-15.88)" fill="#99c834"/>
  <ellipse cx="57.28" cy="134.81" rx="4.47" ry="22.67" transform="translate(-82.25 179.41) rotate(-84.71)" fill="#99c834"/>
  <ellipse cx="65.81" cy="104.83" rx="4.47" ry="22.67" transform="translate(-57.37 117.01) rotate(-63.53)" fill="#99c834"/>
  <ellipse cx="84.59" cy="79.96" rx="4.47" ry="22.67" transform="translate(-31.79 77.86) rotate(-42.35)" fill="#99c834"/>
  <ellipse cx="111.09" cy="63.55" rx="4.47" ry="22.67" transform="translate(-15.45 44.42) rotate(-21.18)" fill="#99c834"/>
</svg>