<?xml version="1.0" encoding="UTF-8"?>
<svg id="a" data-name="图层 1" xmlns="http://www.w3.org/2000/svg" width="100mm" height="100mm" viewBox="0 0 283.46 283.46">
  <ellipse cx="141.73" cy="106" rx="4.32" ry="21.93" fill="#99c834"/>
  <ellipse cx="154.76" cy="108.45" rx="21.92" ry="4.32" transform="translate(-2.11 213.82) rotate(-68.91)" fill="#99c834"/>
  <ellipse cx="166.03" cy="115.45" rx="21.89" ry="4.33" transform="translate(-31.04 160.82) rotate(-47.78)" fill="#99c834"/>
  <ellipse cx="174.02" cy="126.08" rx="21.86" ry="4.34" transform="translate(-38.02 91.17) rotate(-26.57)" fill="#99c834"/>
  <ellipse cx="177.65" cy="138.88" rx="21.84" ry="4.34" transform="translate(-12.11 17.06) rotate(-5.32)" fill="#99c834"/>
  <ellipse cx="176.42" cy="152.13" rx="4.34" ry="21.85" transform="translate(-18.33 279.95) rotate(-74.05)" fill="#99c834"/>
  <ellipse cx="170.51" cy="164.05" rx="4.33" ry="21.87" transform="translate(-63.24 200.75) rotate(-52.82)" fill="#99c834"/>
  <ellipse cx="160.72" cy="173.01" rx="4.33" ry="21.9" transform="translate(-66.88 110.06) rotate(-31.65)" fill="#99c834"/>
  <ellipse cx="148.36" cy="177.82" rx="4.32" ry="21.93" transform="translate(-30.03 30.14) rotate(-10.54)" fill="#99c834"/>
  <ellipse cx="135.11" cy="177.82" rx="21.93" ry="4.32" transform="translate(-64.43 278.11) rotate(-79.46)" fill="#99c834"/>
  <ellipse cx="122.75" cy="173.01" rx="21.9" ry="4.33" transform="translate(-88.94 186.72) rotate(-58.35)" fill="#99c834"/>
  <ellipse cx="112.95" cy="164.05" rx="21.87" ry="4.33" transform="translate(-76.18 101.61) rotate(-37.18)" fill="#99c834"/>
  <ellipse cx="107.04" cy="152.13" rx="21.85" ry="4.34" transform="translate(-37.69 35.27) rotate(-15.95)" fill="#99c834"/>
  <ellipse cx="105.82" cy="138.88" rx="4.34" ry="21.84" transform="translate(-42.27 231.37) rotate(-84.68)" fill="#99c834"/>
  <ellipse cx="109.45" cy="126.08" rx="4.34" ry="21.86" transform="translate(-52.27 167.56) rotate(-63.43)" fill="#99c834"/>
  <ellipse cx="117.43" cy="115.45" rx="4.33" ry="21.89" transform="translate(-47.12 108.88) rotate(-42.22)" fill="#99c834"/>
  <ellipse cx="128.7" cy="108.45" rx="4.32" ry="21.92" transform="translate(-30.4 53.57) rotate(-21.09)" fill="#99c834"/>
</svg>