<?xml version="1.0" encoding="UTF-8"?>
<svg id="a" data-name="图层 1" xmlns="http://www.w3.org/2000/svg" width="100mm" height="100mm" viewBox="0 0 283.46 283.46">
  <path d="M141.73,252.28c-2.24,0-3.99-3.1-3.79-6.7,1.32-46.72,2.59-67.01,3.79-67.01s2.47,20.29,3.79,67.01c.2,3.6-1.55,6.7-3.79,6.7Z" fill="#d4db7e"/>
  <path d="M101.63,244.75c-2.09-.81-2.61-4.34-1.12-7.62,18.04-43.08,26.52-61.55,27.64-61.11s-5,19.82-20.57,63.86c-1.1,3.43-3.86,5.69-5.94,4.87Z" fill="#d4db7e"/>
  <path d="M66.94,223.19c-1.65-1.51-.87-5,1.7-7.52,32.32-33.63,46.87-47.77,47.76-46.96.89.81-11.79,16.67-42.16,52.09-2.26,2.8-5.64,3.9-7.3,2.39Z" fill="#d4db7e"/>
  <path d="M42.36,190.5c-1-2.01.99-4.97,4.28-6.39,42.23-19.64,60.89-27.55,61.43-26.46.54,1.08-16.99,11.27-58.05,33.28-3.12,1.79-6.67,1.59-7.66-.42Z" fill="#d4db7e"/>
  <path d="M31.19,151.09c-.21-2.24,2.71-4.28,6.3-4.41,46.45-2.99,66.69-3.6,66.8-2.39s-19.9,4.34-66.1,9.97c-3.55.54-6.79-.93-7-3.17Z" fill="#d4db7e"/>
  <path d="M34.96,110.3c.61-2.16,4.07-3.01,7.46-1.83,44.38,14.06,63.48,20.84,63.15,22-.33,1.16-20.11-3.17-65.22-14.68-3.5-.79-5.99-3.33-5.38-5.49Z" fill="#d4db7e"/>
  <path d="M53.14,73.62c1.35-1.79,4.87-1.33,7.61,1,36.33,29.21,51.69,42.46,50.97,43.42-.73.96-17.62-10.25-55.54-37.35-2.98-2.01-4.39-5.28-3.04-7.08Z" fill="#d4db7e"/>
  <path d="M83.29,46.02h0c1.9-1.18,5.02.53,6.74,3.69,23.37,40.42,32.93,58.34,31.91,58.98s-12.74-15.95-38.35-54.97c-2.06-2.95-2.19-6.52-.29-7.7Z" fill="#d4db7e"/>
  <path d="M121.33,31.22h0c2.2-.41,4.49,2.31,4.95,5.89,7.25,46.16,9.72,66.35,8.54,66.57-1.18.22-6.14-19.49-15.99-65.17-.86-3.5.3-6.87,2.5-7.29Z" fill="#d4db7e"/>
  <path d="M162.13,31.22h0c2.2.41,3.36,3.79,2.5,7.29-9.85,45.68-14.8,65.39-15.99,65.17-1.18-.22,1.29-20.4,8.54-66.57.46-3.57,2.75-6.3,4.95-5.89Z" fill="#d4db7e"/>
  <path d="M200.17,46.02c1.9,1.18,1.77,4.75-.29,7.7-25.61,39.02-37.33,55.61-38.35,54.97-1.02-.64,8.54-18.56,31.91-58.98,1.71-3.17,4.83-4.88,6.74-3.69Z" fill="#d4db7e"/>
  <path d="M230.32,73.62h0c1.35,1.79-.06,5.07-3.04,7.08-37.92,27.09-54.81,38.31-55.54,37.35-.73-.96,14.64-14.21,50.97-43.42,2.74-2.33,6.26-2.8,7.61-1Z" fill="#d4db7e"/>
  <path d="M248.51,110.3c.61,2.16-1.88,4.71-5.38,5.49-45.11,11.51-64.89,15.84-65.22,14.68-.33-1.16,18.76-7.94,63.15-22,3.39-1.18,6.84-.34,7.46,1.83Z" fill="#d4db7e"/>
  <path d="M252.27,151.09h0c-.21,2.24-3.45,3.71-7,3.17-46.2-5.63-66.21-8.77-66.1-9.97.11-1.2,20.35-.6,66.8,2.39,3.59.13,6.5,2.17,6.3,4.41Z" fill="#d4db7e"/>
  <path d="M241.11,190.49c-1,2.01-4.55,2.21-7.66.42-41.06-22.01-58.58-32.19-58.05-33.28.54-1.08,19.19,6.83,61.43,26.46,3.3,1.42,5.28,4.38,4.28,6.39Z" fill="#d4db7e"/>
  <path d="M216.52,223.19c-1.65,1.51-5.03.41-7.3-2.39-30.37-35.42-43.05-51.27-42.16-52.09.89-.81,15.44,13.33,47.76,46.96,2.56,2.52,3.35,6,1.7,7.52Z" fill="#d4db7e"/>
  <path d="M181.84,244.75c-2.09.81-4.84-1.45-5.95-4.87-15.57-44.04-21.7-63.42-20.57-63.86,1.12-.44,9.6,18.03,27.64,61.11,1.48,3.28.96,6.81-1.12,7.62Z" fill="#d4db7e"/>
</svg>