<?xml version="1.0" encoding="UTF-8"?>
<svg id="a" data-name="图层 1" xmlns="http://www.w3.org/2000/svg" width="100mm" height="100mm" viewBox="0 0 283.46 283.46">
  <path d="M141.73,33.46c1.44,0,2.57,2,2.44,4.31-.85,30.03-1.66,43.08-2.44,43.08s-1.59-13.05-2.44-43.08c-.13-2.31,1-4.31,2.44-4.31Z" fill="#72ba2b"/>
  <path d="M181.01,40.83c1.34.52,1.68,2.79.72,4.9-11.6,27.7-17.05,39.57-17.77,39.29-.72-.28,3.21-12.74,13.23-41.06.71-2.2,2.48-3.66,3.82-3.13Z" fill="#72ba2b"/>
  <path d="M214.99,61.95c1.06.97.56,3.21-1.09,4.83-20.78,21.62-30.13,30.71-30.7,30.19-.57-.52,7.58-10.72,27.1-33.49,1.46-1.8,3.63-2.51,4.69-1.54Z" fill="#72ba2b"/>
  <path d="M239.07,93.98c.64,1.29-.63,3.2-2.75,4.11-27.15,12.62-39.15,17.71-39.49,17.01-.35-.7,10.92-7.24,37.32-21.39,2-1.15,4.29-1.02,4.93.27Z" fill="#72ba2b"/>
  <path d="M250,132.57c.13,1.44-1.74,2.75-4.05,2.83-29.86,1.92-42.87,2.31-42.94,1.54-.07-.77,12.79-2.79,42.5-6.41,2.28-.34,4.36.6,4.5,2.04Z" fill="#72ba2b"/>
  <path d="M246.32,172.53c-.39,1.39-2.61,1.93-4.79,1.17-28.54-9.04-40.81-13.4-40.6-14.14.21-.75,12.93,2.04,41.93,9.44,2.25.51,3.85,2.14,3.46,3.53Z" fill="#72ba2b"/>
  <path d="M228.51,208.45c-.87,1.15-3.13.86-4.89-.64-23.36-18.78-33.24-27.3-32.77-27.92s11.33,6.59,35.71,24.01c1.92,1.29,2.82,3.4,1.96,4.55Z" fill="#72ba2b"/>
  <path d="M198.98,235.49c-1.22.76-3.23-.34-4.33-2.38-15.02-25.99-21.17-37.51-20.51-37.92.66-.41,8.19,10.25,24.66,35.34,1.32,1.9,1.41,4.19.19,4.95Z" fill="#72ba2b"/>
  <path d="M161.71,249.98c-1.41.27-2.89-1.49-3.18-3.79-4.66-29.68-6.25-42.66-5.49-42.8.76-.14,3.95,12.53,10.28,41.9.55,2.25-.19,4.42-1.61,4.69Z" fill="#72ba2b"/>
  <path d="M121.75,249.98c-1.41-.27-2.16-2.43-1.61-4.68,6.33-29.37,9.52-42.04,10.28-41.9.76.14-.83,13.12-5.49,42.8-.29,2.3-1.77,4.05-3.18,3.79Z" fill="#72ba2b"/>
  <path d="M84.49,235.49c-1.22-.76-1.14-3.05.19-4.95,16.47-25.09,24-35.75,24.66-35.34s-5.49,11.93-20.51,37.92c-1.1,2.04-3.11,3.14-4.33,2.38Z" fill="#72ba2b"/>
  <path d="M54.96,208.45c-.87-1.15.04-3.26,1.96-4.55,24.38-17.42,35.24-24.63,35.71-24.01s-9.41,9.14-32.77,27.92c-1.76,1.5-4.03,1.8-4.89.64Z" fill="#72ba2b"/>
  <path d="M37.15,172.53c-.39-1.39,1.21-3.03,3.46-3.53,29-7.4,41.72-10.18,41.93-9.44.21.75-12.06,5.1-40.6,14.14-2.18.76-4.4.22-4.79-1.17Z" fill="#72ba2b"/>
  <path d="M33.46,132.57c.13-1.44,2.22-2.38,4.5-2.04,29.7,3.62,42.57,5.64,42.5,6.41-.07.77-13.08.38-42.94-1.54-2.31-.08-4.18-1.39-4.05-2.83Z" fill="#72ba2b"/>
  <path d="M44.39,93.98c.64-1.29,2.92-1.42,4.93-.27,26.4,14.15,37.66,20.7,37.32,21.39-.35.7-12.34-4.39-39.49-17.01-2.12-.91-3.4-2.82-2.76-4.11Z" fill="#72ba2b"/>
  <path d="M68.48,61.95c1.06-.97,3.24-.26,4.69,1.54,19.52,22.77,27.68,32.96,27.1,33.49-.57.52-9.93-8.57-30.7-30.19-1.65-1.62-2.15-3.86-1.09-4.83Z" fill="#72ba2b"/>
  <path d="M102.45,40.83c1.34-.52,3.11.93,3.82,3.13,10.01,28.31,13.95,40.78,13.23,41.06-.72.28-6.17-11.59-17.77-39.29-.95-2.11-.62-4.38.72-4.9Z" fill="#72ba2b"/>
</svg>